<svg width="400" height="400" viewBox="0 0 400 400" fill="none" xmlns="http://www.w3.org/2000/svg">
<rect width="400" height="400" fill="white"/>
<rect width="400" height="400" fill="#333333"/>
<path d="M106.622 115.4C105.102 112.6 102.902 110.48 100.022 109.04C97.2217 107.52 93.9017 106.76 90.0617 106.76C83.4217 106.76 78.1017 108.96 74.1017 113.36C70.1017 117.68 68.1017 123.48 68.1017 130.76C68.1017 138.52 70.1817 144.6 74.3417 149C78.5817 153.32 84.3817 155.48 91.7417 155.48C96.7817 155.48 101.022 154.2 104.462 151.64C107.982 149.08 110.542 145.4 112.142 140.6H86.1017V125.48H130.742V144.56C129.222 149.68 126.622 154.44 122.942 158.84C119.342 163.24 114.742 166.8 109.142 169.52C103.542 172.24 97.2217 173.6 90.1817 173.6C81.8617 173.6 74.4217 171.8 67.8617 168.2C61.3817 164.52 56.3017 159.44 52.6217 152.96C49.0217 146.48 47.2217 139.08 47.2217 130.76C47.2217 122.44 49.0217 115.04 52.6217 108.56C56.3017 102 61.3817 96.92 67.8617 93.32C74.3417 89.64 81.7417 87.8 90.0617 87.8C100.142 87.8 108.622 90.24 115.502 95.12C122.462 100 127.062 106.76 129.302 115.4H106.622ZM205.228 138.44C205.228 140.36 205.108 142.36 204.868 144.44H158.428C158.748 148.6 160.068 151.8 162.388 154.04C164.788 156.2 167.708 157.28 171.148 157.28C176.268 157.28 179.828 155.12 181.828 150.8H203.668C202.548 155.2 200.508 159.16 197.548 162.68C194.668 166.2 191.028 168.96 186.628 170.96C182.228 172.96 177.308 173.96 171.868 173.96C165.308 173.96 159.468 172.56 154.348 169.76C149.228 166.96 145.228 162.96 142.348 157.76C139.468 152.56 138.028 146.48 138.028 139.52C138.028 132.56 139.428 126.48 142.228 121.28C145.108 116.08 149.108 112.08 154.228 109.28C159.348 106.48 165.228 105.08 171.868 105.08C178.348 105.08 184.108 106.44 189.148 109.16C194.188 111.88 198.108 115.76 200.908 120.8C203.788 125.84 205.228 131.72 205.228 138.44ZM184.228 133.04C184.228 129.52 183.028 126.72 180.628 124.64C178.228 122.56 175.228 121.52 171.628 121.52C168.188 121.52 165.268 122.52 162.868 124.52C160.548 126.52 159.108 129.36 158.548 133.04H184.228ZM279.173 138.44C279.173 140.36 279.053 142.36 278.813 144.44H232.373C232.693 148.6 234.013 151.8 236.333 154.04C238.733 156.2 241.653 157.28 245.093 157.28C250.213 157.28 253.773 155.12 255.773 150.8H277.613C276.493 155.2 274.453 159.16 271.493 162.68C268.613 166.2 264.973 168.96 260.573 170.96C256.173 172.96 251.253 173.96 245.813 173.96C239.253 173.96 233.413 172.56 228.293 169.76C223.173 166.96 219.173 162.96 216.293 157.76C213.413 152.56 211.973 146.48 211.973 139.52C211.973 132.56 213.373 126.48 216.173 121.28C219.053 116.08 223.053 112.08 228.173 109.28C233.293 106.48 239.173 105.08 245.813 105.08C252.293 105.08 258.053 106.44 263.093 109.16C268.133 111.88 272.053 115.76 274.853 120.8C277.733 125.84 279.173 131.72 279.173 138.44ZM258.173 133.04C258.173 129.52 256.973 126.72 254.573 124.64C252.173 122.56 249.173 121.52 245.573 121.52C242.133 121.52 239.213 122.52 236.813 124.52C234.493 126.52 233.053 129.36 232.493 133.04H258.173ZM330.919 173L310.519 144.92V173H289.999V84.2H310.519V133.28L330.799 106.04H356.119L328.279 139.64L356.359 173H330.919Z" fill="#7D59FC"/>
<path d="M102.98 254.88C102.98 259.76 101.86 264.24 99.6198 268.32C97.3798 272.32 93.9398 275.56 89.2998 278.04C84.6598 280.52 78.8998 281.76 72.0198 281.76H59.2998V312H38.7798V227.76H72.0198C78.7398 227.76 84.4198 228.92 89.0598 231.24C93.6998 233.56 97.1798 236.76 99.4998 240.84C101.82 244.92 102.98 249.6 102.98 254.88ZM70.4598 265.44C74.3798 265.44 77.2998 264.52 79.2198 262.68C81.1398 260.84 82.0998 258.24 82.0998 254.88C82.0998 251.52 81.1398 248.92 79.2198 247.08C77.2998 245.24 74.3798 244.32 70.4598 244.32H59.2998V265.44H70.4598ZM134.183 223.2V312H113.663V223.2H134.183ZM144.973 278.4C144.973 271.52 146.253 265.48 148.813 260.28C151.453 255.08 155.013 251.08 159.493 248.28C163.973 245.48 168.973 244.08 174.493 244.08C179.213 244.08 183.333 245.04 186.853 246.96C190.453 248.88 193.213 251.4 195.133 254.52V245.04H215.653V312H195.133V302.52C193.133 305.64 190.333 308.16 186.733 310.08C183.213 312 179.093 312.96 174.373 312.96C168.933 312.96 163.973 311.56 159.493 308.76C155.013 305.88 151.453 301.84 148.813 296.64C146.253 291.36 144.973 285.28 144.973 278.4ZM195.133 278.52C195.133 273.4 193.693 269.36 190.813 266.4C188.013 263.44 184.573 261.96 180.493 261.96C176.413 261.96 172.933 263.44 170.053 266.4C167.253 269.28 165.853 273.28 165.853 278.4C165.853 283.52 167.253 287.6 170.053 290.64C172.933 293.6 176.413 295.08 180.493 295.08C184.573 295.08 188.013 293.6 190.813 290.64C193.693 287.68 195.133 283.64 195.133 278.52ZM226.419 278.52C226.419 271.56 227.819 265.48 230.619 260.28C233.499 255.08 237.459 251.08 242.499 248.28C247.619 245.48 253.459 244.08 260.019 244.08C268.419 244.08 275.419 246.28 281.019 250.68C286.699 255.08 290.419 261.28 292.179 269.28H270.339C268.499 264.16 264.939 261.6 259.659 261.6C255.899 261.6 252.899 263.08 250.659 266.04C248.419 268.92 247.299 273.08 247.299 278.52C247.299 283.96 248.419 288.16 250.659 291.12C252.899 294 255.899 295.44 259.659 295.44C264.939 295.44 268.499 292.88 270.339 287.76H292.179C290.419 295.6 286.699 301.76 281.019 306.24C275.339 310.72 268.339 312.96 260.019 312.96C253.459 312.96 247.619 311.56 242.499 308.76C237.459 305.96 233.499 301.96 230.619 296.76C227.819 291.56 226.419 285.48 226.419 278.52ZM366.275 277.44C366.275 279.36 366.155 281.36 365.915 283.44H319.475C319.795 287.6 321.115 290.8 323.435 293.04C325.835 295.2 328.755 296.28 332.195 296.28C337.315 296.28 340.875 294.12 342.875 289.8H364.715C363.595 294.2 361.555 298.16 358.595 301.68C355.715 305.2 352.075 307.96 347.675 309.96C343.275 311.96 338.355 312.96 332.915 312.96C326.355 312.96 320.515 311.56 315.395 308.76C310.275 305.96 306.275 301.96 303.395 296.76C300.515 291.56 299.075 285.48 299.075 278.52C299.075 271.56 300.475 265.48 303.275 260.28C306.155 255.08 310.155 251.08 315.275 248.28C320.395 245.48 326.275 244.08 332.915 244.08C339.395 244.08 345.155 245.44 350.195 248.16C355.235 250.88 359.155 254.76 361.955 259.8C364.835 264.84 366.275 270.72 366.275 277.44ZM345.275 272.04C345.275 268.52 344.075 265.72 341.675 263.64C339.275 261.56 336.275 260.52 332.675 260.52C329.235 260.52 326.315 261.52 323.915 263.52C321.595 265.52 320.155 268.36 319.595 272.04H345.275Z" fill="white"/>
</svg>
